# xmcd
#
# Track frame offsets: 
#        150
#        11413
#        23770
#        35788
#        48117
#        60119
#        75065
#        90344
#        107468
#
# Disc length: 1595 seconds
#
# Revision: 0
# Processed by: cddbd v1.5.1PL0 Copyright (c) Steve Scherf et al.
# Submitted via: ExactAudioCopy v0.95a5
#
DISCID=4c063909
DTITLE=The Platters - All Time Greatest Hits
DYEAR=2002
DGENRE=Oldies
TTITLE0=Smoke Gets In Your Eyes
TTITLE1=Twilight Time
TTITLE2=(You've Got) The Magic Touch
TTITLE3=Only You (And You Alone)
TTITLE4=Heaven On Earth
TTITLE5=The Great Pretender
TTITLE6=My Prayer
TTITLE7=Harbor Lights
TTITLE8=I Love You 1000 Times
EXTD=
EXTT0=
EXTT1=
EXTT2=
EXTT3=
EXTT4=
EXTT5=
EXTT6=
EXTT7=
EXTT8=
PLAYORDER=
